<?xml version="1.0" standalone="no"?>
<!DOCTYPE svg PUBLIC "-//W3C//DTD SVG 20010904//EN"
 "http://www.w3.org/TR/2001/REC-SVG-20010904/DTD/svg10.dtd">
<svg version="1.0" xmlns="http://www.w3.org/2000/svg"
 width="300.000000pt" height="300.000000pt" viewBox="0 0 300.000000 300.000000"
 preserveAspectRatio="xMidYMid meet">

<g transform="translate(0.000000,300.000000) scale(0.100000,-0.100000)"
fill="#000000" stroke="none">
<path d="M1480 2939 c-8 -11 -14 -25 -12 -30 1 -5 -2 -9 -7 -9 -5 0 -11 -9
-14 -20 -3 -11 -1 -20 4 -20 5 0 9 -5 9 -11 0 -6 -7 -9 -15 -5 -10 3 -15 -1
-15 -12 0 -10 -4 -22 -9 -27 -6 -6 -13 -25 -16 -43 -5 -28 -3 -33 12 -30 10 2
18 10 19 18 3 46 5 49 20 43 10 -4 12 -9 5 -16 -5 -5 -7 -15 -5 -22 3 -7 1
-16 -5 -20 -19 -11 -12 -41 9 -41 21 0 26 11 10 21 -13 8 -2 57 16 71 17 14
18 34 2 34 -10 0 -10 2 -2 8 12 7 24 132 14 132 -3 0 -12 -9 -20 -21z"/>
<path d="M1515 2939 c-2 -8 -6 -72 -7 -143 l-3 -129 -30 -18 c-16 -9 -40 -15
-52 -12 -12 3 -28 1 -35 -3 -7 -5 -20 -9 -28 -9 -8 0 -17 -11 -18 -25 -2 -13
-10 -33 -18 -44 -8 -11 -14 -27 -14 -36 1 -8 9 2 20 23 22 44 58 80 83 85 22
4 21 -3 -3 -36 -26 -36 -169 -397 -177 -447 -3 -22 -12 -52 -19 -67 -18 -36
-18 -47 1 -22 14 18 15 18 6 -6 -5 -14 -14 -24 -20 -23 -6 2 -11 -4 -11 -12 0
-8 -11 -30 -24 -49 -23 -35 -94 -208 -141 -345 -28 -83 -43 -103 -118 -154
-40 -27 -71 -39 -137 -50 -85 -15 -85 -15 175 -14 167 1 259 6 258 12 -1 6
-26 13 -54 17 -104 13 -105 49 -11 301 l68 182 243 0 242 0 71 -185 c109 -288
104 -271 83 -286 -10 -7 -23 -15 -29 -18 -7 -3 -6 -8 4 -15 21 -15 512 -10
517 5 2 7 -20 14 -58 17 -73 8 -109 28 -147 82 -49 67 -70 117 -332 770 -139
347 -259 639 -266 649 -11 15 -14 16 -19 5z m10 -574 c67 -180 84 -209 114
-191 5 4 11 0 14 -6 3 -10 9 -8 24 5 20 17 20 18 2 75 -10 31 -23 65 -29 74
-5 10 -10 25 -10 33 0 8 -4 15 -10 15 -5 0 -10 12 -10 28 1 20 3 23 10 12 19
-33 130 -338 130 -359 0 -19 -13 -25 -46 -20 -4 0 -11 -5 -15 -13 -7 -10 -9
-8 -10 7 0 11 -3 14 -6 7 -2 -6 -8 -10 -13 -7 -12 8 -62 -14 -56 -24 3 -4 -28
-14 -68 -21 -86 -15 -180 -6 -204 18 -10 9 -31 19 -47 20 -17 2 -33 7 -36 10
-7 8 182 522 192 522 3 0 36 -83 74 -185z m95 70 c0 -5 -5 -3 -10 5 -5 8 -10
20 -10 25 0 6 5 3 10 -5 5 -8 10 -19 10 -25z m246 -629 c9 -27 36 -93 59 -147
24 -54 41 -100 38 -102 -2 -3 -13 -3 -24 0 -14 4 -18 11 -14 27 5 20 4 20 -6
-1 -7 -13 -16 -23 -21 -23 -5 0 -5 7 0 18 5 9 10 34 10 54 1 31 -2 36 -16 32
-13 -5 -14 -4 -3 4 12 8 10 17 -7 54 -12 24 -24 58 -28 76 -4 17 -10 32 -15
32 -5 0 -9 12 -9 28 0 35 13 16 36 -52z m6 -238 c-7 -7 -12 -8 -12 -2 0 6 3
14 7 17 3 4 9 5 12 2 2 -3 -1 -11 -7 -17z"/>
<path d="M1403 2713 c-13 -2 -23 -9 -23 -14 0 -6 4 -8 9 -5 5 3 12 -1 15 -10
5 -12 2 -15 -11 -10 -10 4 -14 4 -10 -1 13 -12 87 -14 87 -2 0 6 -7 9 -15 5
-27 -10 -46 4 -34 25 5 10 8 18 7 18 -2 -1 -13 -4 -25 -6z"/>
<path d="M1100 2691 c-25 -10 -54 -21 -65 -26 -11 -4 -23 -8 -26 -7 -4 1 -15
-8 -24 -18 -10 -11 -22 -20 -27 -20 -5 0 -25 -12 -43 -26 -20 -15 -39 -23 -46
-18 -7 4 -9 3 -6 -3 4 -6 -18 -30 -48 -53 -84 -64 -201 -194 -267 -293 -124
-189 -194 -394 -214 -624 -7 -79 -25 -123 -50 -123 -8 0 -14 -6 -14 -14 0 -14
-27 -30 -45 -28 -6 1 -12 -8 -13 -21 -4 -44 -2 -110 3 -116 3 -3 55 19 116 50
l110 54 3 195 c2 183 4 202 35 315 93 346 313 619 614 761 77 36 81 44 7 15z"/>
<path d="M1979 2641 c126 -72 254 -185 341 -302 57 -77 147 -242 170 -311 12
-38 23 -47 35 -28 3 6 2 10 -3 10 -5 0 -13 19 -17 43 -5 23 -9 45 -10 50 -1 4
-3 12 -4 18 0 5 -5 7 -11 4 -5 -3 -7 0 -4 8 3 8 -2 17 -10 20 -9 4 -16 17 -16
29 0 13 -11 36 -25 52 -14 16 -25 35 -25 42 0 7 -9 16 -20 19 -11 3 -20 11
-20 16 0 5 -11 22 -25 37 -14 15 -25 30 -25 34 0 3 -20 27 -45 51 -25 25 -45
50 -45 56 0 6 -6 11 -13 11 -7 0 -29 15 -48 33 -20 17 -44 38 -55 44 -47 31
-141 82 -159 88 -11 4 4 -7 34 -24z"/>
<path d="M1339 2528 c-5 -9 -5 -48 -1 -43 6 6 11 45 5 45 -2 0 -4 -1 -4 -2z"/>
<path d="M1265 2410 c-3 -5 -1 -10 4 -10 6 0 11 5 11 10 0 6 -2 10 -4 10 -3 0
-8 -4 -11 -10z"/>
<path d="M2460 2282 c0 -15 22 -31 36 -25 18 7 5 33 -17 33 -10 0 -19 -4 -19
-8z"/>
<path d="M517 2273 c-9 -2 -15 -9 -12 -14 9 -14 22 -11 29 6 3 8 4 14 3 14 -1
-1 -10 -3 -20 -6z"/>
<path d="M490 2240 c0 -5 5 -10 10 -10 6 0 10 5 10 10 0 6 -4 10 -10 10 -5 0
-10 -4 -10 -10z"/>
<path d="M2480 2230 c0 -5 7 -7 17 -3 13 5 15 2 11 -15 -4 -12 -2 -22 3 -22 5
0 9 -7 9 -16 0 -8 16 -50 36 -92 74 -157 122 -341 125 -477 2 -80 2 -81 -46
-99 -44 -17 -75 -47 -75 -73 0 -7 54 -40 119 -72 l119 -60 7 46 c15 104 -23
370 -76 521 -35 100 -114 255 -165 325 -25 34 -41 47 -59 47 -14 0 -25 -4 -25
-10z"/>
<path d="M373 2068 c-4 -7 -9 -21 -10 -31 -2 -14 0 -15 10 -6 7 7 14 21 14 31
2 21 -3 23 -14 6z"/>
<path d="M344 1996 c-10 -8 -16 -17 -13 -20 3 -3 16 3 29 14 26 23 14 27 -16
6z"/>
<path d="M282 1850 c-7 -12 -8 -20 -2 -20 5 0 9 -5 8 -11 -2 -6 3 -14 10 -16
14 -5 17 13 3 21 -5 3 -7 15 -4 26 7 25 1 25 -15 0z"/>
<path d="M316 1835 c4 -8 10 -12 15 -9 11 6 2 24 -11 24 -5 0 -7 -7 -4 -15z"/>
<path d="M270 1770 c-8 -5 -11 -12 -7 -16 4 -4 13 -2 19 4 15 15 7 24 -12 12z"/>
<path d="M235 1510 c-3 -6 1 -7 9 -4 18 7 21 14 7 14 -6 0 -13 -4 -16 -10z"/>
<path d="M714 1305 c-4 -11 -26 -66 -50 -122 -38 -94 -40 -103 -22 -103 10 0
17 3 14 8 -2 4 2 22 9 40 12 28 19 32 50 32 32 0 37 -4 51 -40 13 -32 21 -40
41 -40 21 0 23 3 14 14 -7 8 -32 63 -56 123 -34 85 -45 104 -51 88z m26 -122
c0 -8 -12 -13 -30 -13 -19 0 -28 4 -25 13 2 6 10 26 16 42 l11 30 14 -30 c7
-16 13 -36 14 -42z"/>
<path d="M945 1305 c-44 -16 -72 -47 -77 -85 -5 -42 10 -94 32 -112 34 -27 98
-41 145 -31 l40 8 3 53 c3 49 2 52 -20 52 -21 0 -23 -3 -20 -50 l4 -50 -42 0
c-33 0 -48 6 -71 29 -25 25 -29 37 -29 83 0 44 4 59 23 76 31 29 99 30 127 2
l20 -20 0 25 c0 18 -5 25 -19 25 -10 0 -31 2 -47 5 -16 3 -47 -2 -69 -10z"/>
<path d="M1234 1304 c-4 -10 -26 -65 -50 -121 -39 -95 -40 -103 -22 -103 10 0
17 3 14 8 -2 4 2 22 9 40 12 28 19 32 50 32 33 0 38 -4 52 -40 13 -32 21 -40
41 -40 18 0 22 3 14 13 -6 6 -29 59 -52 117 -23 58 -44 107 -46 109 -2 2 -7
-5 -10 -15z m26 -116 c0 -13 -8 -18 -25 -18 -28 0 -31 15 -13 55 l12 26 13
-23 c7 -13 12 -31 13 -40z"/>
<path d="M2230 1214 c-23 -60 -47 -115 -53 -121 -7 -10 -4 -13 10 -13 14 0 22
10 29 38 8 34 12 37 50 40 40 3 41 2 53 -38 9 -32 17 -40 35 -40 l24 0 -39 93
c-73 172 -59 166 -109 41z m55 0 c19 -46 20 -44 -15 -44 -16 0 -30 4 -30 9 0
12 21 71 26 71 2 0 11 -16 19 -36z"/>
<path d="M462 1283 c-10 -16 -29 -55 -42 -88 -13 -33 -27 -64 -32 -69 -4 -6
-8 -23 -8 -38 l0 -28 -64 6 c-35 3 -70 6 -78 7 -24 2 -128 -15 -132 -22 -3 -4
17 -14 43 -24 70 -25 113 -73 180 -205 73 -142 141 -245 220 -334 220 -247
476 -383 811 -431 l147 -20 145 21 c291 41 520 149 717 337 148 141 237 266
318 444 51 114 94 163 169 191 30 11 59 20 65 20 6 0 7 5 4 11 -4 6 -9 8 -12
5 -3 -3 -14 6 -25 19 -18 23 -25 25 -76 20 -114 -10 -162 -21 -187 -45 -14
-13 -25 -29 -25 -35 0 -6 -18 -49 -41 -96 -162 -337 -443 -571 -796 -666 -87
-24 -117 -27 -268 -27 -168 -1 -172 -1 -290 35 -207 63 -359 154 -514 307 -53
53 -100 95 -104 94 -5 -2 -6 1 -3 6 3 5 -8 24 -24 43 -16 19 -29 37 -30 42 0
9 -50 87 -67 105 -7 7 -14 18 -14 23 -1 5 -3 14 -4 19 -1 6 -3 13 -4 18 -1 4
-5 1 -10 -7 -6 -9 -11 -10 -15 -2 -4 6 -2 11 3 11 6 0 11 7 11 15 0 8 -5 15
-11 15 -5 0 -7 5 -3 11 4 7 20 -11 38 -44 25 -43 35 -54 46 -47 8 6 20 10 25
10 6 -1 2 -5 -8 -11 -14 -8 -16 -14 -6 -25 6 -7 16 -11 22 -7 11 7 32 7 80 3
17 -2 18 -3 5 -7 -14 -4 -15 -7 -5 -17 15 -15 49 -30 62 -27 5 1 1 -7 -9 -18
-21 -23 -13 -29 10 -7 23 23 16 55 -20 105 -78 106 -188 374 -172 417 9 22 -1
16 -22 -13z m2418 -197 c0 -3 -4 -8 -10 -11 -5 -3 -10 -1 -10 4 0 6 5 11 10
11 6 0 10 -2 10 -4z m-2516 -72 c9 -24 7 -36 -4 -29 -6 4 -8 10 -5 15 3 5 -3
13 -12 19 -16 9 -16 10 -2 11 9 0 20 -7 23 -16z m36 -64 c0 -5 -2 -10 -4 -10
-3 0 -8 5 -11 10 -3 6 -1 10 4 10 6 0 11 -4 11 -10z"/>
<path d="M1415 1195 c0 -113 0 -115 23 -115 21 0 22 3 16 35 -14 76 21 80 74
9 25 -33 39 -44 60 -44 15 0 22 4 16 8 -7 4 -28 27 -48 50 l-36 44 20 28 c42
59 12 100 -75 100 l-50 0 0 -115z m89 92 c13 -9 17 -23 14 -52 -3 -37 -5 -40
-33 -40 -28 0 -30 3 -33 39 -5 64 12 82 52 53z"/>
<path d="M1626 1295 c-4 -13 -2 -13 14 -5 10 5 31 10 45 10 l26 0 -3 -110 -3
-110 25 0 25 0 -3 110 c-3 107 -3 110 18 110 12 0 30 -5 41 -10 15 -8 19 -7
19 5 0 22 -195 22 -204 0z"/>
<path d="M1898 1195 c3 -111 4 -115 25 -115 21 0 22 4 19 60 l-4 61 64 -3 63
-3 -1 -57 c-1 -53 1 -58 20 -58 20 0 21 5 21 115 0 109 -1 115 -21 115 -18 0
-20 -6 -20 -47 l1 -48 -63 -3 -64 -3 4 51 c3 48 2 50 -22 50 l-25 0 3 -115z"/>
<path d="M2520 1190 c0 -5 5 -10 11 -10 5 0 7 5 4 10 -3 6 -8 10 -11 10 -2 0
-4 -4 -4 -10z"/>
<path d="M1008 1003 c20 -4 22 -10 22 -59 0 -30 5 -54 10 -54 6 0 10 25 10 56
0 51 2 56 20 51 11 -3 20 -1 20 4 0 5 -24 8 -52 8 -29 -1 -43 -4 -30 -6z"/>
<path d="M1130 1008 c-1 -2 -2 -29 -3 -60 l-2 -58 30 1 c24 1 25 3 8 6 -16 3
-23 11 -23 28 0 17 7 25 23 28 l22 4 -22 2 c-16 1 -23 7 -23 22 0 16 5 20 20
16 11 -3 20 -1 20 4 0 8 -49 14 -50 7z"/>
<path d="M1230 951 c0 -35 4 -61 10 -61 6 0 8 11 4 25 -3 14 -2 25 3 25 5 0
20 -11 33 -25 13 -14 28 -25 34 -25 5 0 -5 15 -22 33 -32 33 -32 33 -12 52 11
10 20 23 20 29 0 6 -10 -1 -21 -16 -24 -33 -44 -37 -36 -8 3 11 1 23 -4 26 -5
3 -9 -22 -9 -55z"/>
<path d="M1440 963 l-1 -48 -40 43 c-22 23 -42 42 -44 42 -3 0 -4 -26 -3 -57
1 -53 2 -54 5 -14 l4 44 45 -44 44 -43 0 62 c0 34 -2 62 -5 62 -3 0 -5 -21 -5
-47z"/>
<path d="M1545 1003 c33 -8 45 -24 45 -57 0 -18 -6 -38 -12 -46 -7 -8 -3 -6
10 4 44 37 15 108 -43 105 -20 -1 -20 -1 0 -6z"/>
<path d="M1660 952 l-5 -62 35 1 c31 1 32 2 10 8 -22 6 -26 14 -30 61 l-6 55
-4 -63z"/>
<path d="M1795 1003 c33 -8 45 -24 45 -59 0 -21 -6 -37 -17 -43 -10 -6 -13
-11 -7 -11 19 0 44 35 44 63 0 29 -33 58 -65 56 -20 -1 -20 -1 0 -6z"/>
<path d="M1912 1010 c-7 -16 -6 -148 1 -135 4 8 6 43 4 77 -2 35 -4 61 -5 58z"/>
<path d="M1500 981 c-5 -11 -10 -28 -10 -39 0 -21 30 -52 51 -52 8 0 4 7 -10
16 -20 14 -22 23 -18 55 6 43 3 48 -13 20z"/>
<path d="M1752 988 c-28 -28 -1 -98 39 -98 8 0 4 7 -10 16 -20 14 -22 23 -18
55 6 44 6 44 -11 27z"/>
<path d="M1975 945 c0 -30 5 -55 10 -55 6 0 9 23 7 55 -5 71 -17 71 -17 0z"/>
<path d="M2373 883 c-1 -24 -1 -25 7 -8 11 26 12 35 2 35 -4 0 -8 -12 -9 -27z"/>
<path d="M511 828 c7 -16 19 -28 28 -28 14 0 14 2 1 10 -13 9 -13 11 0 21 13
9 13 10 -1 6 -9 -3 -22 0 -29 6 -9 9 -8 5 1 -15z"/>
<path d="M2350 840 c0 -5 5 -10 10 -10 6 0 10 5 10 10 0 6 -4 10 -10 10 -5 0
-10 -4 -10 -10z"/>
<path d="M2319 799 c-20 -16 -20 -18 -4 -11 11 5 27 11 35 14 9 3 10 7 3 11
-6 4 -22 -2 -34 -14z"/>
<path d="M600 801 c0 -10 30 -24 37 -17 3 2 -5 9 -16 16 -12 6 -21 7 -21 1z"/>
<path d="M705 780 c3 -5 8 -10 11 -10 2 0 4 5 4 10 0 6 -5 10 -11 10 -5 0 -7
-4 -4 -10z"/>
<path d="M566 765 c4 -8 16 -15 28 -16 11 0 15 -3 9 -6 -7 -2 -13 -9 -13 -15
0 -6 6 -5 15 2 17 14 16 31 0 32 -6 0 -18 4 -27 9 -14 7 -16 6 -12 -6z"/>
<path d="M2287 754 c3 -7 9 -14 14 -14 14 0 10 17 -5 23 -10 4 -13 1 -9 -9z"/>
<path d="M690 729 c0 -5 5 -7 10 -4 6 3 10 8 10 11 0 2 -4 4 -10 4 -5 0 -10
-5 -10 -11z"/>
<path d="M2245 730 c-3 -5 -3 -10 2 -11 4 0 19 -3 32 -5 28 -5 26 -2 -6 15
-14 7 -24 8 -28 1z"/>
<path d="M2171 675 c-1 -6 8 -18 19 -28 22 -19 41 -24 23 -6 -6 6 -9 19 -5 28
5 13 3 14 -10 3 -13 -10 -17 -10 -21 0 -3 7 -6 8 -6 3z"/>
<path d="M2136 651 c-3 -4 0 -16 8 -26 11 -15 13 -16 13 -1 0 9 -5 16 -11 16
-6 0 -4 5 4 10 9 6 10 10 3 10 -6 0 -14 -4 -17 -9z"/>
<path d="M2225 650 c3 -5 8 -10 11 -10 2 0 4 5 4 10 0 6 -5 10 -11 10 -5 0 -7
-4 -4 -10z"/>
<path d="M2095 611 c4 -7 -1 -18 -11 -26 -14 -10 -21 -10 -26 -2 -5 8 -8 6 -8
-5 0 -22 9 -23 38 -2 13 9 22 11 22 4 0 -6 5 -8 11 -4 8 5 8 9 -1 14 -6 4 -11
11 -10 16 1 5 -4 10 -11 13 -7 2 -9 -1 -4 -8z"/>
<path d="M2006 535 c-21 -49 -52 -80 -63 -62 -4 6 -6 20 -5 30 2 9 -2 17 -8
17 -7 0 -10 -7 -6 -15 3 -8 1 -15 -3 -15 -5 0 -4 -13 2 -30 11 -29 27 -41 27
-20 0 6 5 10 10 10 6 0 10 -6 10 -13 0 -8 10 -22 22 -33 14 -12 18 -13 10 -3
-14 19 -7 29 22 29 20 0 20 0 0 14 -18 14 -17 15 14 14 17 -1 32 -4 32 -9 0
-10 39 1 47 14 3 6 1 7 -5 3 -8 -5 -12 2 -12 19 0 23 -2 24 -21 15 -25 -14
-56 5 -39 25 6 8 5 18 -4 30 -13 18 -15 17 -30 -20z m42 -53 c6 -18 -15 -14
-22 4 -4 10 -1 14 6 12 6 -2 14 -10 16 -16z m42 -2 c0 -5 -5 -10 -11 -10 -5 0
-7 5 -4 10 3 6 8 10 11 10 2 0 4 -4 4 -10z m-88 -26 c-4 -24 -6 -24 -21 -9
-14 14 -14 17 -1 25 23 15 28 12 22 -16z"/>
<path d="M2082 552 c-9 -6 -5 -12 13 -22 21 -11 27 -11 38 0 10 10 9 11 -2 5
-11 -6 -13 -4 -8 8 7 18 -17 23 -41 9z"/>
<path d="M1966 535 c-11 -9 -14 -15 -7 -15 7 0 19 7 27 15 20 19 5 19 -20 0z"/>
<path d="M2065 520 c-3 -5 1 -10 9 -10 9 0 16 5 16 10 0 6 -4 10 -9 10 -6 0
-13 -4 -16 -10z"/>
<path d="M2180 515 c-7 -8 -16 -13 -20 -10 -5 3 -12 0 -15 -6 -4 -5 -14 -8
-24 -5 -14 5 -14 4 1 -7 10 -8 15 -17 11 -20 -3 -4 -1 -7 5 -7 7 0 12 7 12 16
0 8 5 12 10 9 6 -3 10 -1 10 4 0 6 7 11 15 11 8 0 15 7 15 15 0 19 -4 19 -20
0z"/>
<path d="M1844 480 c-30 -13 -45 -27 -53 -50 -9 -28 -8 -33 9 -37 11 -3 18 -9
15 -12 -2 -4 2 -8 9 -8 8 0 12 8 9 21 -4 16 -2 17 5 7 6 -8 18 -11 33 -6 23 7
24 7 4 -9 -11 -8 -15 -16 -9 -16 6 0 16 6 22 13 10 11 12 18 12 33 0 4 7 1 15
-6 11 -9 15 -9 15 -1 0 6 -6 14 -13 17 -8 3 -13 19 -12 39 2 40 -3 41 -61 15z
m36 -24 c0 -3 -4 -8 -10 -11 -5 -3 -10 -1 -10 4 0 6 5 11 10 11 6 0 10 -2 10
-4z m0 -36 c0 -5 -7 -7 -15 -4 -8 4 -15 8 -15 10 0 2 7 4 15 4 8 0 15 -4 15
-10z"/>
<path d="M1692 431 c-7 -4 -41 -9 -75 -10 -34 -1 -62 -3 -63 -4 -1 -1 -5 -13
-9 -27 -7 -22 -6 -23 8 -12 8 7 19 12 23 11 5 -1 18 -1 29 0 15 1 17 3 6 10
-9 6 -4 8 18 7 33 -1 44 -16 12 -16 -10 0 -24 -7 -31 -15 -9 -11 -9 -15 -1
-15 7 0 9 -5 5 -11 -4 -8 -9 -8 -17 0 -6 6 -16 11 -21 11 -6 0 -2 -7 8 -15 19
-14 19 -15 -7 -15 -19 0 -25 4 -21 15 4 8 1 15 -6 15 -6 0 -10 -8 -9 -17 4
-47 -12 -57 -38 -25 -13 16 -14 15 -9 -9 4 -21 1 -27 -22 -36 l-27 -10 28 1
c15 1 31 6 35 11 14 20 60 37 82 30 13 -4 20 -3 17 2 -9 14 9 36 22 28 9 -5 9
-10 0 -21 -6 -8 -9 -17 -5 -21 3 -3 6 -1 6 5 0 6 7 9 15 6 12 -5 13 -10 4 -20
-8 -10 -8 -14 -1 -14 6 0 16 9 22 21 7 11 14 18 17 15 9 -9 44 14 38 24 -3 5
5 12 19 16 17 4 23 11 18 22 -3 10 -7 12 -10 4 -6 -20 -17 -13 -18 13 -1 16 3
25 13 25 12 0 12 2 -1 15 -16 17 -34 19 -54 6z m22 -23 c-1 -13 -3 -25 -4 -28
-1 -3 -2 -9 -1 -14 1 -6 -1 -21 -4 -34 -6 -23 -7 -23 -24 -8 -10 9 -21 13 -26
9 -4 -5 -5 -2 -1 5 4 7 2 19 -4 27 -10 12 -9 15 4 15 9 0 16 -8 16 -20 0 -11
5 -20 11 -20 6 0 9 7 6 15 -4 8 -2 17 3 20 6 4 10 17 10 31 0 13 4 24 8 24 5
0 8 -10 6 -22z"/>
<path d="M1367 414 c5 -15 0 -16 -40 -10 -50 8 -61 1 -24 -14 18 -7 19 -9 3
-9 -12 -1 -16 -6 -12 -17 3 -9 6 -23 6 -31 0 -13 3 -13 15 -3 12 10 16 9 21
-4 6 -15 7 -15 19 1 11 15 12 14 10 -9 -2 -16 3 -29 11 -32 8 -3 14 -1 14 5 0
10 24 39 33 39 2 0 2 -12 0 -27 -4 -24 -2 -25 7 -11 6 10 10 24 9 30 -2 24 13
58 27 58 8 0 11 6 7 17 -5 12 -3 14 7 8 9 -5 11 -4 6 3 -9 15 -26 16 -26 1 0
-6 -7 -17 -15 -26 -8 -8 -13 -19 -9 -24 3 -6 -6 -7 -23 -4 -23 5 -25 4 -13 -5
13 -10 12 -11 -3 -6 -10 3 -21 6 -24 6 -3 0 -1 6 5 13 11 13 4 67 -9 67 -5 0
-6 -7 -2 -16z m-25 -56 c-8 -8 -9 -4 -5 13 4 13 8 18 11 10 2 -7 -1 -18 -6
-23z"/>
<path d="M1395 411 c-3 -6 6 -8 22 -5 37 7 42 14 10 14 -14 0 -28 -4 -32 -9z"/>
<path d="M1508 408 c9 -9 15 -9 24 0 9 9 7 12 -12 12 -19 0 -21 -3 -12 -12z"/>
<path d="M1194 392 c3 -5 0 -13 -6 -15 -9 -4 -10 -6 -1 -6 17 -1 25 16 12 25
-7 4 -9 3 -5 -4z"/>
<path d="M1493 378 c-13 -6 -23 -15 -23 -20 0 -8 17 -1 50 22 20 13 1 12 -27
-2z"/>
<path d="M1905 380 c-3 -5 -1 -10 4 -10 6 0 11 5 11 10 0 6 -2 10 -4 10 -3 0
-8 -4 -11 -10z"/>
<path d="M1951 374 c0 -11 3 -14 6 -6 3 7 2 16 -1 19 -3 4 -6 -2 -5 -13z"/>
<path d="M1248 363 c7 -3 16 -2 19 1 4 3 -2 6 -13 5 -11 0 -14 -3 -6 -6z"/>
<path d="M1761 341 c-21 -16 -21 -19 -6 -24 23 -9 27 -9 20 3 -3 6 -2 10 3 10
6 0 12 7 16 15 7 20 -4 19 -33 -4z"/>
<path d="M1841 344 c0 -11 3 -14 6 -6 3 7 2 16 -1 19 -3 4 -6 -2 -5 -13z"/>
<path d="M1455 330 c-3 -5 1 -10 9 -10 9 0 16 5 16 10 0 6 -4 10 -9 10 -6 0
-13 -4 -16 -10z"/>
<path d="M1456 299 c3 -5 12 -9 21 -9 19 0 9 13 -12 16 -8 1 -13 -2 -9 -7z"/>
<path d="M1546 273 c-6 -14 -5 -15 5 -6 7 7 10 15 7 18 -3 3 -9 -2 -12 -12z"/>
<path d="M1595 280 c-3 -5 -1 -10 4 -10 6 0 11 5 11 10 0 6 -2 10 -4 10 -3 0
-8 -4 -11 -10z"/>
</g>
</svg>
